<svg width="324" height="56" viewBox="0 0 324 56" fill="none" xmlns="http://www.w3.org/2000/svg">
<path d="M57.1423 23.8836C55.658 22.3719 53.9282 21.1859 52.0019 20.3552C50.0036 19.4955 47.8851 19.0593 45.7021 19.0593H16.1789C13.9965 19.0593 11.8773 19.4949 9.88032 20.3552C7.95336 21.1852 6.22356 22.3719 4.73928 23.8836C3.25438 25.3947 2.0894 27.1558 1.27348 29.1176C0.42904 31.1507 0 33.3088 0 35.5294C0 37.7525 0.4278 39.9087 1.27348 41.9418C2.08878 43.9036 3.25438 45.6634 4.73928 47.1764C6.22356 48.6875 7.95336 49.8735 9.88032 50.7036C11.878 51.5626 13.9965 52.0007 16.1789 52.0007C18.7296 52.0007 21.2716 51.3802 23.5309 50.2037C25.048 49.4146 26.4449 48.3732 27.6508 47.1398H34.229C35.4355 48.3732 36.833 49.4146 38.3495 50.2037C40.6094 51.3796 43.1514 52.0007 45.7008 52.0007C47.8838 52.0007 50.0024 51.5639 52 50.7036C53.9264 49.8742 55.6555 48.6875 57.1398 47.1764C58.6247 45.664 59.7909 43.9036 60.6056 41.9418C61.4501 39.9087 61.8785 37.7519 61.8785 35.5294C61.8785 33.3075 61.4513 31.1507 60.6056 29.1176C59.7928 27.1564 58.6272 25.3954 57.1423 23.8836ZM45.7021 47.6814C41.7985 47.6814 38.3315 45.772 36.1541 42.8204H25.7269C23.5495 45.772 20.083 47.6814 16.1789 47.6814C9.58768 47.6814 4.24452 42.2423 4.24452 35.5306C4.24452 28.8203 9.5883 23.3799 16.1789 23.3799H45.7021C52.2945 23.3799 57.6383 28.8203 57.6383 35.5306C57.6371 42.2416 52.2945 47.6814 45.7021 47.6814Z" fill="#04D361"/>
<path d="M45.7021 42.8197C47.02 42.8197 48.0884 41.732 48.0884 40.3902C48.0884 39.0484 47.02 37.9607 45.7021 37.9607C44.3841 37.9607 43.3157 39.0484 43.3157 40.3902C43.3157 41.732 44.3841 42.8197 45.7021 42.8197Z" fill="#04D361"/>
<path d="M50.4767 37.9601C51.795 37.9601 52.8637 36.8721 52.8637 35.53C52.8637 34.1879 51.795 33.0999 50.4767 33.0999C49.1584 33.0999 48.0897 34.1879 48.0897 35.53C48.0897 36.8721 49.1584 37.9601 50.4767 37.9601Z" fill="#04D361"/>
<path d="M40.9293 37.9601C42.2476 37.9601 43.3163 36.8721 43.3163 35.53C43.3163 34.1879 42.2476 33.0999 40.9293 33.0999C39.611 33.0999 38.5423 34.1879 38.5423 35.53C38.5423 36.8721 39.611 37.9601 40.9293 37.9601Z" fill="#04D361"/>
<path d="M45.7021 33.0997C47.02 33.0997 48.0884 32.012 48.0884 30.6702C48.0884 29.3285 47.02 28.2407 45.7021 28.2407C44.3841 28.2407 43.3157 29.3285 43.3157 30.6702C43.3157 32.012 44.3841 33.0997 45.7021 33.0997Z" fill="#04D361"/>
<path d="M22.1464 33.0997H18.5659V29.4558C18.5659 28.7855 18.0315 28.2407 17.373 28.2407H14.986C14.327 28.2407 13.7925 28.7848 13.7925 29.4558V33.0997H10.2127C9.5536 33.0997 9.01978 33.6438 9.01978 34.3154V36.7456C9.01978 37.4166 9.55422 37.9613 10.2127 37.9613H13.7925V41.6052C13.7925 42.2768 14.327 42.8203 14.986 42.8203H17.373C18.0321 42.8203 18.5659 42.2775 18.5659 41.6052V37.9613H22.1464C22.8055 37.9613 23.3399 37.4172 23.3399 36.7456V34.3154C23.3399 33.6438 22.8049 33.0997 22.1464 33.0997Z" fill="#04D361"/>
<path d="M39.7122 11.0897H51.1072C57.1132 11.0897 62 6.11512 62 0H57.7561C57.7561 3.73295 54.7727 6.76968 51.1066 6.76968H39.7122C33.7057 6.76968 28.8195 11.7442 28.8195 17.8593H33.0627C33.0621 14.127 36.0462 11.0897 39.7122 11.0897Z" fill="#04D361"/>
<path d="M91.4489 12.288C91.0649 11.584 90.5369 11.048 89.8649 10.68C89.1929 10.312 88.4089 10.128 87.5129 10.128C86.5209 10.128 85.6409 10.352 84.8729 10.8C84.1049 11.248 83.5049 11.888 83.0729 12.72C82.6409 13.552 82.4249 14.512 82.4249 15.6C82.4249 16.72 82.6409 17.696 83.0729 18.528C83.5209 19.36 84.1369 20 84.9209 20.448C85.7049 20.896 86.6169 21.12 87.6569 21.12C88.9369 21.12 89.9849 20.784 90.8009 20.112C91.6169 19.424 92.1529 18.472 92.4089 17.256H86.6489V14.688H95.7209V17.616C95.4969 18.784 95.0169 19.864 94.2809 20.856C93.5449 21.848 92.5929 22.648 91.4249 23.256C90.2729 23.848 88.9769 24.144 87.5369 24.144C85.9209 24.144 84.4569 23.784 83.1449 23.064C81.8489 22.328 80.8249 21.312 80.0729 20.016C79.3369 18.72 78.9689 17.248 78.9689 15.6C78.9689 13.952 79.3369 12.48 80.0729 11.184C80.8249 9.87198 81.8489 8.85598 83.1449 8.13598C84.4569 7.39998 85.9129 7.03198 87.5129 7.03198C89.4009 7.03198 91.0409 7.49598 92.4329 8.42398C93.8249 9.33598 94.7849 10.624 95.3129 12.288H91.4489Z" fill="#A8A8B3" fill-opacity="0.8"/>
<path d="M97.3428 17.304C97.3428 15.96 97.6068 14.768 98.1348 13.728C98.6788 12.688 99.4068 11.888 100.319 11.328C101.247 10.768 102.279 10.488 103.415 10.488C104.407 10.488 105.271 10.688 106.007 11.088C106.759 11.488 107.359 11.992 107.807 12.6V10.704H111.191V24H107.807V22.056C107.375 22.68 106.775 23.2 106.007 23.616C105.255 24.016 104.383 24.216 103.391 24.216C102.271 24.216 101.247 23.928 100.319 23.352C99.4068 22.776 98.6788 21.968 98.1348 20.928C97.6068 19.872 97.3428 18.664 97.3428 17.304ZM107.807 17.352C107.807 16.536 107.647 15.84 107.327 15.264C107.007 14.672 106.575 14.224 106.031 13.92C105.487 13.6 104.903 13.44 104.279 13.44C103.655 13.44 103.079 13.592 102.551 13.896C102.023 14.2 101.591 14.648 101.255 15.24C100.935 15.816 100.775 16.504 100.775 17.304C100.775 18.104 100.935 18.808 101.255 19.416C101.591 20.008 102.023 20.464 102.551 20.784C103.095 21.104 103.671 21.264 104.279 21.264C104.903 21.264 105.487 21.112 106.031 20.808C106.575 20.488 107.007 20.04 107.327 19.464C107.647 18.872 107.807 18.168 107.807 17.352Z" fill="#A8A8B3" fill-opacity="0.8"/>
<path d="M130.984 10.512C132.616 10.512 133.928 11.016 134.92 12.024C135.928 13.016 136.432 14.408 136.432 16.2V24H133.072V16.656C133.072 15.616 132.808 14.824 132.28 14.28C131.752 13.72 131.032 13.44 130.12 13.44C129.208 13.44 128.48 13.72 127.936 14.28C127.408 14.824 127.144 15.616 127.144 16.656V24H123.784V16.656C123.784 15.616 123.52 14.824 122.992 14.28C122.464 13.72 121.744 13.44 120.832 13.44C119.904 13.44 119.168 13.72 118.624 14.28C118.096 14.824 117.832 15.616 117.832 16.656V24H114.472V10.704H117.832V12.312C118.264 11.752 118.816 11.312 119.488 10.992C120.176 10.672 120.928 10.512 121.744 10.512C122.784 10.512 123.712 10.736 124.528 11.184C125.344 11.616 125.976 12.24 126.424 13.056C126.856 12.288 127.48 11.672 128.296 11.208C129.128 10.744 130.024 10.512 130.984 10.512Z" fill="#A8A8B3" fill-opacity="0.8"/>
<path d="M151.981 17.064C151.981 17.544 151.949 17.976 151.885 18.36H142.165C142.245 19.32 142.581 20.072 143.173 20.616C143.765 21.16 144.493 21.432 145.357 21.432C146.605 21.432 147.493 20.896 148.021 19.824H151.645C151.261 21.104 150.525 22.16 149.437 22.992C148.349 23.808 147.013 24.216 145.429 24.216C144.149 24.216 142.997 23.936 141.973 23.376C140.965 22.8 140.173 21.992 139.597 20.952C139.037 19.912 138.757 18.712 138.757 17.352C138.757 15.976 139.037 14.768 139.597 13.728C140.157 12.688 140.941 11.888 141.949 11.328C142.957 10.768 144.117 10.488 145.429 10.488C146.693 10.488 147.821 10.76 148.813 11.304C149.821 11.848 150.597 12.624 151.141 13.632C151.701 14.624 151.981 15.768 151.981 17.064ZM148.501 16.104C148.485 15.24 148.173 14.552 147.565 14.04C146.957 13.512 146.213 13.248 145.333 13.248C144.501 13.248 143.797 13.504 143.221 14.016C142.661 14.512 142.317 15.208 142.189 16.104H148.501Z" fill="#A8A8B3" fill-opacity="0.8"/>
<path d="M159.521 24.216C158.433 24.216 157.457 24.024 156.593 23.64C155.729 23.24 155.041 22.704 154.529 22.032C154.033 21.36 153.761 20.616 153.713 19.8H157.097C157.161 20.312 157.409 20.736 157.841 21.072C158.289 21.408 158.841 21.576 159.497 21.576C160.137 21.576 160.633 21.448 160.985 21.192C161.353 20.936 161.537 20.608 161.537 20.208C161.537 19.776 161.313 19.456 160.865 19.248C160.433 19.024 159.737 18.784 158.777 18.528C157.785 18.288 156.969 18.04 156.329 17.784C155.705 17.528 155.161 17.136 154.697 16.608C154.249 16.08 154.025 15.368 154.025 14.472C154.025 13.736 154.233 13.064 154.649 12.456C155.081 11.848 155.689 11.368 156.473 11.016C157.273 10.664 158.209 10.488 159.281 10.488C160.865 10.488 162.129 10.888 163.073 11.688C164.017 12.472 164.537 13.536 164.633 14.88H161.417C161.369 14.352 161.145 13.936 160.745 13.632C160.361 13.312 159.841 13.152 159.185 13.152C158.577 13.152 158.105 13.264 157.769 13.488C157.449 13.712 157.289 14.024 157.289 14.424C157.289 14.872 157.513 15.216 157.961 15.456C158.409 15.68 159.105 15.912 160.049 16.152C161.009 16.392 161.801 16.64 162.425 16.896C163.049 17.152 163.585 17.552 164.033 18.096C164.497 18.624 164.737 19.328 164.753 20.208C164.753 20.976 164.537 21.664 164.105 22.272C163.689 22.88 163.081 23.36 162.281 23.712C161.497 24.048 160.577 24.216 159.521 24.216Z" fill="#A8A8B3" fill-opacity="0.8"/>
<path d="M182.309 9.95998V14.16H187.949V16.824H182.309V21.264H188.669V24H178.949V7.22398H188.669V9.95998H182.309Z" fill="#A8A8B3" fill-opacity="0.8"/>
<path d="M190.858 17.352C190.858 15.976 191.138 14.776 191.698 13.752C192.258 12.712 193.034 11.912 194.026 11.352C195.018 10.776 196.154 10.488 197.434 10.488C199.082 10.488 200.442 10.904 201.514 11.736C202.602 12.552 203.33 13.704 203.698 15.192H200.074C199.882 14.616 199.554 14.168 199.09 13.848C198.642 13.512 198.082 13.344 197.41 13.344C196.45 13.344 195.69 13.696 195.13 14.4C194.57 15.088 194.29 16.072 194.29 17.352C194.29 18.616 194.57 19.6 195.13 20.304C195.69 20.992 196.45 21.336 197.41 21.336C198.77 21.336 199.658 20.728 200.074 19.512H203.698C203.33 20.952 202.602 22.096 201.514 22.944C200.426 23.792 199.066 24.216 197.434 24.216C196.154 24.216 195.018 23.936 194.026 23.376C193.034 22.8 192.258 22 191.698 20.976C191.138 19.936 190.858 18.728 190.858 17.352Z" fill="#A8A8B3" fill-opacity="0.8"/>
<path d="M212.064 24.216C210.784 24.216 209.632 23.936 208.608 23.376C207.584 22.8 206.776 21.992 206.184 20.952C205.608 19.912 205.32 18.712 205.32 17.352C205.32 15.992 205.616 14.792 206.208 13.752C206.816 12.712 207.64 11.912 208.68 11.352C209.72 10.776 210.88 10.488 212.16 10.488C213.44 10.488 214.6 10.776 215.64 11.352C216.68 11.912 217.496 12.712 218.088 13.752C218.696 14.792 219 15.992 219 17.352C219 18.712 218.688 19.912 218.064 20.952C217.456 21.992 216.624 22.8 215.568 23.376C214.528 23.936 213.36 24.216 212.064 24.216ZM212.064 21.288C212.672 21.288 213.24 21.144 213.768 20.856C214.312 20.552 214.744 20.104 215.064 19.512C215.384 18.92 215.544 18.2 215.544 17.352C215.544 16.088 215.208 15.12 214.536 14.448C213.88 13.76 213.072 13.416 212.112 13.416C211.152 13.416 210.344 13.76 209.688 14.448C209.048 15.12 208.728 16.088 208.728 17.352C208.728 18.616 209.04 19.592 209.664 20.28C210.304 20.952 211.104 21.288 212.064 21.288Z" fill="#A8A8B3" fill-opacity="0.8"/>
<path d="M237.977 10.512C239.609 10.512 240.921 11.016 241.913 12.024C242.921 13.016 243.425 14.408 243.425 16.2V24H240.065V16.656C240.065 15.616 239.801 14.824 239.273 14.28C238.745 13.72 238.025 13.44 237.113 13.44C236.201 13.44 235.473 13.72 234.929 14.28C234.401 14.824 234.137 15.616 234.137 16.656V24H230.777V16.656C230.777 15.616 230.513 14.824 229.985 14.28C229.457 13.72 228.737 13.44 227.825 13.44C226.897 13.44 226.161 13.72 225.617 14.28C225.089 14.824 224.825 15.616 224.825 16.656V24H221.465V10.704H224.825V12.312C225.257 11.752 225.809 11.312 226.481 10.992C227.169 10.672 227.921 10.512 228.737 10.512C229.777 10.512 230.705 10.736 231.521 11.184C232.337 11.616 232.969 12.24 233.417 13.056C233.849 12.288 234.473 11.672 235.289 11.208C236.121 10.744 237.017 10.512 237.977 10.512Z" fill="#A8A8B3" fill-opacity="0.8"/>
<path d="M263.125 10.512C264.757 10.512 266.069 11.016 267.061 12.024C268.069 13.016 268.573 14.408 268.573 16.2V24H265.213V16.656C265.213 15.616 264.949 14.824 264.421 14.28C263.893 13.72 263.173 13.44 262.261 13.44C261.349 13.44 260.621 13.72 260.077 14.28C259.549 14.824 259.285 15.616 259.285 16.656V24H255.925V16.656C255.925 15.616 255.661 14.824 255.133 14.28C254.605 13.72 253.885 13.44 252.973 13.44C252.045 13.44 251.309 13.72 250.765 14.28C250.237 14.824 249.973 15.616 249.973 16.656V24H246.613V10.704H249.973V12.312C250.405 11.752 250.957 11.312 251.629 10.992C252.317 10.672 253.069 10.512 253.885 10.512C254.925 10.512 255.853 10.736 256.669 11.184C257.485 11.616 258.117 12.24 258.565 13.056C258.997 12.288 259.621 11.672 260.437 11.208C261.269 10.744 262.165 10.512 263.125 10.512Z" fill="#A8A8B3" fill-opacity="0.8"/>
<path d="M284.121 17.064C284.121 17.544 284.089 17.976 284.025 18.36H274.305C274.385 19.32 274.721 20.072 275.313 20.616C275.905 21.16 276.633 21.432 277.497 21.432C278.745 21.432 279.633 20.896 280.161 19.824H283.785C283.401 21.104 282.665 22.16 281.577 22.992C280.489 23.808 279.153 24.216 277.569 24.216C276.289 24.216 275.137 23.936 274.113 23.376C273.105 22.8 272.313 21.992 271.737 20.952C271.177 19.912 270.897 18.712 270.897 17.352C270.897 15.976 271.177 14.768 271.737 13.728C272.297 12.688 273.081 11.888 274.089 11.328C275.097 10.768 276.257 10.488 277.569 10.488C278.833 10.488 279.961 10.76 280.953 11.304C281.961 11.848 282.737 12.624 283.281 13.632C283.841 14.624 284.121 15.768 284.121 17.064ZM280.641 16.104C280.625 15.24 280.313 14.552 279.705 14.04C279.097 13.512 278.353 13.248 277.473 13.248C276.641 13.248 275.937 13.504 275.361 14.016C274.801 14.512 274.457 15.208 274.329 16.104H280.641Z" fill="#A8A8B3" fill-opacity="0.8"/>
<path d="M289.934 12.768C290.366 12.064 290.926 11.512 291.614 11.112C292.318 10.712 293.118 10.512 294.014 10.512V14.04H293.126C292.07 14.04 291.27 14.288 290.726 14.784C290.198 15.28 289.934 16.144 289.934 17.376V24H286.574V10.704H289.934V12.768Z" fill="#A8A8B3" fill-opacity="0.8"/>
<path d="M295.413 17.352C295.413 15.976 295.693 14.776 296.253 13.752C296.813 12.712 297.589 11.912 298.581 11.352C299.573 10.776 300.709 10.488 301.989 10.488C303.637 10.488 304.997 10.904 306.069 11.736C307.157 12.552 307.885 13.704 308.253 15.192H304.629C304.437 14.616 304.109 14.168 303.645 13.848C303.197 13.512 302.637 13.344 301.965 13.344C301.005 13.344 300.245 13.696 299.685 14.4C299.125 15.088 298.845 16.072 298.845 17.352C298.845 18.616 299.125 19.6 299.685 20.304C300.245 20.992 301.005 21.336 301.965 21.336C303.325 21.336 304.213 20.728 304.629 19.512H308.253C307.885 20.952 307.157 22.096 306.069 22.944C304.981 23.792 303.621 24.216 301.989 24.216C300.709 24.216 299.573 23.936 298.581 23.376C297.589 22.8 296.813 22 296.253 20.976C295.693 19.936 295.413 18.728 295.413 17.352Z" fill="#A8A8B3" fill-opacity="0.8"/>
<path d="M323.075 17.064C323.075 17.544 323.043 17.976 322.979 18.36H313.259C313.339 19.32 313.675 20.072 314.267 20.616C314.859 21.16 315.587 21.432 316.451 21.432C317.699 21.432 318.587 20.896 319.115 19.824H322.739C322.355 21.104 321.619 22.16 320.531 22.992C319.443 23.808 318.107 24.216 316.523 24.216C315.243 24.216 314.091 23.936 313.067 23.376C312.059 22.8 311.267 21.992 310.691 20.952C310.131 19.912 309.851 18.712 309.851 17.352C309.851 15.976 310.131 14.768 310.691 13.728C311.251 12.688 312.035 11.888 313.043 11.328C314.051 10.768 315.211 10.488 316.523 10.488C317.787 10.488 318.915 10.76 319.907 11.304C320.915 11.848 321.691 12.624 322.235 13.632C322.795 14.624 323.075 15.768 323.075 17.064ZM319.595 16.104C319.579 15.24 319.267 14.552 318.659 14.04C318.051 13.512 317.307 13.248 316.427 13.248C315.595 13.248 314.891 13.504 314.315 14.016C313.755 14.512 313.411 15.208 313.283 16.104H319.595Z" fill="#A8A8B3" fill-opacity="0.8"/>
<path d="M81.3515 45.588V49.858C81.3515 50.1473 81.4168 50.3573 81.5475 50.488C81.6875 50.6093 81.9208 50.67 82.2475 50.67H83.2275V52H81.9675C81.2488 52 80.6981 51.832 80.3155 51.496C79.9328 51.16 79.7415 50.614 79.7415 49.858V45.588H78.8315V44.286H79.7415V42.368H81.3515V44.286H83.2275V45.588H81.3515Z" fill="#A8A8B3" fill-opacity="0.8"/>
<path d="M88.6884 44.16C89.2764 44.16 89.7991 44.286 90.2564 44.538C90.7231 44.79 91.0871 45.1633 91.3484 45.658C91.6191 46.1526 91.7544 46.75 91.7544 47.45V52H90.1724V47.688C90.1724 46.9973 89.9998 46.47 89.6544 46.106C89.3091 45.7327 88.8378 45.546 88.2404 45.546C87.6431 45.546 87.1671 45.7327 86.8124 46.106C86.4671 46.47 86.2944 46.9973 86.2944 47.688V52H84.6984V41.64H86.2944V45.182C86.5651 44.8553 86.9058 44.6033 87.3164 44.426C87.7364 44.2487 88.1938 44.16 88.6884 44.16Z" fill="#A8A8B3" fill-opacity="0.8"/>
<path d="M100.86 47.954C100.86 48.2433 100.842 48.5047 100.804 48.738H94.9102C94.9569 49.354 95.1856 49.8486 95.5962 50.222C96.0069 50.5953 96.5109 50.782 97.1082 50.782C97.9669 50.782 98.5736 50.4226 98.9282 49.704H100.65C100.417 50.4133 99.9922 50.9966 99.3762 51.454C98.7696 51.902 98.0136 52.126 97.1082 52.126C96.3709 52.126 95.7082 51.9626 95.1202 51.636C94.5416 51.3 94.0842 50.8333 93.7482 50.236C93.4216 49.6293 93.2582 48.9293 93.2582 48.136C93.2582 47.3426 93.4169 46.6473 93.7342 46.05C94.0609 45.4433 94.5136 44.9766 95.0922 44.65C95.6802 44.3233 96.3522 44.16 97.1082 44.16C97.8362 44.16 98.4849 44.3186 99.0542 44.636C99.6236 44.9533 100.067 45.4013 100.384 45.98C100.702 46.5493 100.86 47.2073 100.86 47.954ZM99.1942 47.45C99.1849 46.862 98.9749 46.3907 98.5642 46.036C98.1536 45.6813 97.6449 45.504 97.0382 45.504C96.4876 45.504 96.0162 45.6813 95.6242 46.036C95.2322 46.3813 94.9989 46.8526 94.9242 47.45H99.1942Z" fill="#A8A8B3" fill-opacity="0.8"/>
<path d="M107.664 45.434C107.934 45.0606 108.303 44.7573 108.77 44.524C109.246 44.2813 109.773 44.16 110.352 44.16C111.033 44.16 111.649 44.3233 112.2 44.65C112.75 44.9766 113.184 45.4433 113.502 46.05C113.819 46.6473 113.978 47.3333 113.978 48.108C113.978 48.8826 113.819 49.578 113.502 50.194C113.184 50.8006 112.746 51.2766 112.186 51.622C111.635 51.958 111.024 52.126 110.352 52.126C109.754 52.126 109.222 52.0093 108.756 51.776C108.298 51.5426 107.934 51.244 107.664 50.88V52H106.068V41.64H107.664V45.434ZM112.354 48.108C112.354 47.576 112.242 47.1186 112.018 46.736C111.803 46.344 111.514 46.05 111.15 45.854C110.795 45.6486 110.412 45.546 110.002 45.546C109.6 45.546 109.218 45.6486 108.854 45.854C108.499 46.0593 108.21 46.358 107.986 46.75C107.771 47.142 107.664 47.604 107.664 48.136C107.664 48.668 107.771 49.1347 107.986 49.536C108.21 49.928 108.499 50.2267 108.854 50.432C109.218 50.6373 109.6 50.74 110.002 50.74C110.412 50.74 110.795 50.6373 111.15 50.432C111.514 50.2173 111.803 49.9093 112.018 49.508C112.242 49.1067 112.354 48.64 112.354 48.108Z" fill="#A8A8B3" fill-opacity="0.8"/>
<path d="M122.626 47.954C122.626 48.2433 122.607 48.5047 122.57 48.738H116.676C116.723 49.354 116.951 49.8486 117.362 50.222C117.773 50.5953 118.277 50.782 118.874 50.782C119.733 50.782 120.339 50.4226 120.694 49.704H122.416C122.183 50.4133 121.758 50.9966 121.142 51.454C120.535 51.902 119.779 52.126 118.874 52.126C118.137 52.126 117.474 51.9626 116.886 51.636C116.307 51.3 115.85 50.8333 115.514 50.236C115.187 49.6293 115.024 48.9293 115.024 48.136C115.024 47.3426 115.183 46.6473 115.5 46.05C115.827 45.4433 116.279 44.9766 116.858 44.65C117.446 44.3233 118.118 44.16 118.874 44.16C119.602 44.16 120.251 44.3186 120.82 44.636C121.389 44.9533 121.833 45.4013 122.15 45.98C122.467 46.5493 122.626 47.2073 122.626 47.954ZM120.96 47.45C120.951 46.862 120.741 46.3907 120.33 46.036C119.919 45.6813 119.411 45.504 118.804 45.504C118.253 45.504 117.782 45.6813 117.39 46.036C116.998 46.3813 116.765 46.8526 116.69 47.45H120.96Z" fill="#A8A8B3" fill-opacity="0.8"/>
<path d="M126.996 52.126C126.39 52.126 125.844 52.0186 125.358 51.804C124.882 51.58 124.504 51.2813 124.224 50.908C123.944 50.5253 123.795 50.1007 123.776 49.634H125.428C125.456 49.9607 125.61 50.236 125.89 50.46C126.18 50.6747 126.539 50.782 126.968 50.782C127.416 50.782 127.762 50.698 128.004 50.53C128.256 50.3527 128.382 50.1286 128.382 49.858C128.382 49.5686 128.242 49.354 127.962 49.214C127.692 49.074 127.258 48.92 126.66 48.752C126.082 48.5933 125.61 48.4393 125.246 48.29C124.882 48.1406 124.565 47.912 124.294 47.604C124.033 47.296 123.902 46.89 123.902 46.386C123.902 45.9753 124.024 45.602 124.266 45.266C124.509 44.9207 124.854 44.65 125.302 44.454C125.76 44.258 126.282 44.16 126.87 44.16C127.748 44.16 128.452 44.384 128.984 44.832C129.526 45.2706 129.815 45.8726 129.852 46.638H128.256C128.228 46.2926 128.088 46.0173 127.836 45.812C127.584 45.6066 127.244 45.504 126.814 45.504C126.394 45.504 126.072 45.5833 125.848 45.742C125.624 45.9006 125.512 46.1106 125.512 46.372C125.512 46.5773 125.587 46.75 125.736 46.89C125.886 47.03 126.068 47.142 126.282 47.226C126.497 47.3006 126.814 47.3986 127.234 47.52C127.794 47.6693 128.252 47.8233 128.606 47.982C128.97 48.1313 129.283 48.3553 129.544 48.654C129.806 48.9527 129.941 49.3493 129.95 49.844C129.95 50.2826 129.829 50.6746 129.586 51.02C129.344 51.3653 128.998 51.636 128.55 51.832C128.112 52.028 127.594 52.126 126.996 52.126Z" fill="#A8A8B3" fill-opacity="0.8"/>
<path d="M136.908 45.42C137.178 45.0653 137.547 44.7666 138.014 44.524C138.48 44.2813 139.008 44.16 139.596 44.16C140.268 44.16 140.879 44.328 141.43 44.664C141.99 44.9906 142.428 45.4527 142.746 46.05C143.063 46.6473 143.222 47.3333 143.222 48.108C143.222 48.8826 143.063 49.578 142.746 50.194C142.428 50.8006 141.99 51.2766 141.43 51.622C140.879 51.958 140.268 52.126 139.596 52.126C139.008 52.126 138.485 52.0093 138.028 51.776C137.57 51.5333 137.197 51.2346 136.908 50.88V55.668H135.312V44.286H136.908V45.42ZM141.598 48.108C141.598 47.576 141.486 47.1186 141.262 46.736C141.047 46.344 140.758 46.05 140.394 45.854C140.039 45.6486 139.656 45.546 139.246 45.546C138.844 45.546 138.462 45.6486 138.098 45.854C137.743 46.0593 137.454 46.358 137.23 46.75C137.015 47.142 136.908 47.604 136.908 48.136C136.908 48.668 137.015 49.1347 137.23 49.536C137.454 49.928 137.743 50.2267 138.098 50.432C138.462 50.6373 138.844 50.74 139.246 50.74C139.656 50.74 140.039 50.6373 140.394 50.432C140.758 50.2173 141.047 49.9093 141.262 49.508C141.486 49.1067 141.598 48.64 141.598 48.108Z" fill="#A8A8B3" fill-opacity="0.8"/>
<path d="M146.396 41.64V52H144.8V41.64H146.396Z" fill="#A8A8B3" fill-opacity="0.8"/>
<path d="M147.959 48.108C147.959 47.3333 148.118 46.6473 148.435 46.05C148.762 45.4527 149.201 44.9906 149.751 44.664C150.311 44.328 150.927 44.16 151.599 44.16C152.206 44.16 152.733 44.2813 153.181 44.524C153.639 44.7573 154.003 45.0513 154.273 45.406V44.286H155.883V52H154.273V50.852C154.003 51.216 153.634 51.5193 153.167 51.762C152.701 52.0046 152.169 52.126 151.571 52.126C150.909 52.126 150.302 51.958 149.751 51.622C149.201 51.2766 148.762 50.8006 148.435 50.194C148.118 49.578 147.959 48.8826 147.959 48.108ZM154.273 48.136C154.273 47.604 154.161 47.142 153.937 46.75C153.723 46.358 153.438 46.0593 153.083 45.854C152.729 45.6486 152.346 45.546 151.935 45.546C151.525 45.546 151.142 45.6486 150.787 45.854C150.433 46.05 150.143 46.344 149.919 46.736C149.705 47.1186 149.597 47.576 149.597 48.108C149.597 48.64 149.705 49.1067 149.919 49.508C150.143 49.9093 150.433 50.2173 150.787 50.432C151.151 50.6373 151.534 50.74 151.935 50.74C152.346 50.74 152.729 50.6373 153.083 50.432C153.438 50.2267 153.723 49.928 153.937 49.536C154.161 49.1347 154.273 48.668 154.273 48.136Z" fill="#A8A8B3" fill-opacity="0.8"/>
<path d="M157.448 48.136C157.448 47.3426 157.606 46.6473 157.924 46.05C158.25 45.4433 158.698 44.9766 159.268 44.65C159.837 44.3233 160.49 44.16 161.228 44.16C162.161 44.16 162.931 44.384 163.538 44.832C164.154 45.2706 164.569 45.9006 164.784 46.722H163.062C162.922 46.3393 162.698 46.0406 162.39 45.826C162.082 45.6113 161.694 45.504 161.228 45.504C160.574 45.504 160.052 45.7373 159.66 46.204C159.277 46.6613 159.086 47.3053 159.086 48.136C159.086 48.9666 159.277 49.6153 159.66 50.082C160.052 50.5486 160.574 50.782 161.228 50.782C162.152 50.782 162.763 50.376 163.062 49.564H164.784C164.56 50.348 164.14 50.9733 163.524 51.44C162.908 51.8973 162.142 52.126 161.228 52.126C160.49 52.126 159.837 51.9626 159.268 51.636C158.698 51.3 158.25 50.8333 157.924 50.236C157.606 49.6293 157.448 48.9293 157.448 48.136Z" fill="#A8A8B3" fill-opacity="0.8"/>
<path d="M173.444 47.954C173.444 48.2433 173.426 48.5047 173.388 48.738H167.494C167.541 49.354 167.77 49.8486 168.18 50.222C168.591 50.5953 169.095 50.782 169.692 50.782C170.551 50.782 171.158 50.4226 171.512 49.704H173.234C173.001 50.4133 172.576 50.9966 171.96 51.454C171.354 51.902 170.598 52.126 169.692 52.126C168.955 52.126 168.292 51.9626 167.704 51.636C167.126 51.3 166.668 50.8333 166.332 50.236C166.006 49.6293 165.842 48.9293 165.842 48.136C165.842 47.3426 166.001 46.6473 166.318 46.05C166.645 45.4433 167.098 44.9766 167.676 44.65C168.264 44.3233 168.936 44.16 169.692 44.16C170.42 44.16 171.069 44.3186 171.638 44.636C172.208 44.9533 172.651 45.4013 172.968 45.98C173.286 46.5493 173.444 47.2073 173.444 47.954ZM171.778 47.45C171.769 46.862 171.559 46.3907 171.148 46.036C170.738 45.6813 170.229 45.504 169.622 45.504C169.072 45.504 168.6 45.6813 168.208 46.036C167.816 46.3813 167.583 46.8526 167.508 47.45H171.778Z" fill="#A8A8B3" fill-opacity="0.8"/>
<path d="M180.514 45.588V49.858C180.514 50.1473 180.579 50.3573 180.71 50.488C180.85 50.6093 181.083 50.67 181.41 50.67H182.39V52H181.13C180.411 52 179.86 51.832 179.478 51.496C179.095 51.16 178.904 50.614 178.904 49.858V45.588H177.994V44.286H178.904V42.368H180.514V44.286H182.39V45.588H180.514Z" fill="#A8A8B3" fill-opacity="0.8"/>
<path d="M187.207 52.126C186.479 52.126 185.821 51.9626 185.233 51.636C184.645 51.3 184.183 50.8333 183.847 50.236C183.511 49.6293 183.343 48.9293 183.343 48.136C183.343 47.352 183.515 46.6567 183.861 46.05C184.206 45.4433 184.677 44.9766 185.275 44.65C185.872 44.3233 186.539 44.16 187.277 44.16C188.014 44.16 188.681 44.3233 189.279 44.65C189.876 44.9766 190.347 45.4433 190.693 46.05C191.038 46.6567 191.211 47.352 191.211 48.136C191.211 48.92 191.033 49.6153 190.679 50.222C190.324 50.8286 189.839 51.3 189.223 51.636C188.616 51.9626 187.944 52.126 187.207 52.126ZM187.207 50.74C187.617 50.74 188 50.642 188.355 50.446C188.719 50.25 189.013 49.956 189.237 49.564C189.461 49.172 189.573 48.696 189.573 48.136C189.573 47.576 189.465 47.1046 189.251 46.722C189.036 46.33 188.751 46.036 188.397 45.84C188.042 45.644 187.659 45.546 187.249 45.546C186.838 45.546 186.455 45.644 186.101 45.84C185.755 46.036 185.48 46.33 185.275 46.722C185.069 47.1046 184.967 47.576 184.967 48.136C184.967 48.9666 185.177 49.6106 185.597 50.068C186.026 50.516 186.563 50.74 187.207 50.74Z" fill="#A8A8B3" fill-opacity="0.8"/>
<path d="M198.021 45.434C198.292 45.0606 198.66 44.7573 199.127 44.524C199.603 44.2813 200.13 44.16 200.709 44.16C201.39 44.16 202.006 44.3233 202.557 44.65C203.108 44.9766 203.542 45.4433 203.859 46.05C204.176 46.6473 204.335 47.3333 204.335 48.108C204.335 48.8826 204.176 49.578 203.859 50.194C203.542 50.8006 203.103 51.2766 202.543 51.622C201.992 51.958 201.381 52.126 200.709 52.126C200.112 52.126 199.58 52.0093 199.113 51.776C198.656 51.5426 198.292 51.244 198.021 50.88V52H196.425V41.64H198.021V45.434ZM202.711 48.108C202.711 47.576 202.599 47.1186 202.375 46.736C202.16 46.344 201.871 46.05 201.507 45.854C201.152 45.6486 200.77 45.546 200.359 45.546C199.958 45.546 199.575 45.6486 199.211 45.854C198.856 46.0593 198.567 46.358 198.343 46.75C198.128 47.142 198.021 47.604 198.021 48.136C198.021 48.668 198.128 49.1347 198.343 49.536C198.567 49.928 198.856 50.2267 199.211 50.432C199.575 50.6373 199.958 50.74 200.359 50.74C200.77 50.74 201.152 50.6373 201.507 50.432C201.871 50.2173 202.16 49.9093 202.375 49.508C202.599 49.1067 202.711 48.64 202.711 48.108Z" fill="#A8A8B3" fill-opacity="0.8"/>
<path d="M212.899 44.286V52H211.303V51.09C211.051 51.4073 210.72 51.6593 210.309 51.846C209.908 52.0233 209.479 52.112 209.021 52.112C208.415 52.112 207.869 51.986 207.383 51.734C206.907 51.482 206.529 51.1086 206.249 50.614C205.979 50.1193 205.843 49.522 205.843 48.822V44.286H207.425V48.584C207.425 49.2747 207.598 49.8066 207.943 50.18C208.289 50.544 208.76 50.726 209.357 50.726C209.955 50.726 210.426 50.544 210.771 50.18C211.126 49.8066 211.303 49.2747 211.303 48.584V44.286H212.899Z" fill="#A8A8B3" fill-opacity="0.8"/>
<path d="M221.949 44.286L217.217 55.626H215.565L217.133 51.874L214.095 44.286H215.873L218.043 50.166L220.297 44.286H221.949Z" fill="#A8A8B3" fill-opacity="0.8"/>
<path d="M233.734 44.286L229.002 55.626H227.35L228.918 51.874L225.88 44.286H227.658L229.828 50.166L232.082 44.286H233.734Z" fill="#A8A8B3" fill-opacity="0.8"/>
<path d="M238.285 52.126C237.557 52.126 236.899 51.9626 236.311 51.636C235.723 51.3 235.261 50.8333 234.925 50.236C234.589 49.6293 234.421 48.9293 234.421 48.136C234.421 47.352 234.593 46.6567 234.939 46.05C235.284 45.4433 235.755 44.9766 236.353 44.65C236.95 44.3233 237.617 44.16 238.355 44.16C239.092 44.16 239.759 44.3233 240.357 44.65C240.954 44.9766 241.425 45.4433 241.771 46.05C242.116 46.6567 242.289 47.352 242.289 48.136C242.289 48.92 242.111 49.6153 241.757 50.222C241.402 50.8286 240.917 51.3 240.301 51.636C239.694 51.9626 239.022 52.126 238.285 52.126ZM238.285 50.74C238.695 50.74 239.078 50.642 239.433 50.446C239.797 50.25 240.091 49.956 240.315 49.564C240.539 49.172 240.651 48.696 240.651 48.136C240.651 47.576 240.543 47.1046 240.329 46.722C240.114 46.33 239.829 46.036 239.475 45.84C239.12 45.644 238.737 45.546 238.327 45.546C237.916 45.546 237.533 45.644 237.179 45.84C236.833 46.036 236.558 46.33 236.353 46.722C236.147 47.1046 236.045 47.576 236.045 48.136C236.045 48.9666 236.255 49.6106 236.675 50.068C237.104 50.516 237.641 50.74 238.285 50.74Z" fill="#A8A8B3" fill-opacity="0.8"/>
<path d="M250.852 44.286V52H249.256V51.09C249.004 51.4073 248.673 51.6593 248.262 51.846C247.861 52.0233 247.432 52.112 246.974 52.112C246.368 52.112 245.822 51.986 245.336 51.734C244.86 51.482 244.482 51.1086 244.202 50.614C243.932 50.1193 243.796 49.522 243.796 48.822V44.286H245.378V48.584C245.378 49.2747 245.551 49.8066 245.896 50.18C246.242 50.544 246.713 50.726 247.31 50.726C247.908 50.726 248.379 50.544 248.724 50.18C249.079 49.8066 249.256 49.2747 249.256 48.584V44.286H250.852Z" fill="#A8A8B3" fill-opacity="0.8"/>
<path d="M254.554 45.406C254.788 45.014 255.096 44.7106 255.478 44.496C255.87 44.272 256.332 44.16 256.864 44.16V45.812H256.458C255.833 45.812 255.357 45.9706 255.03 46.288C254.713 46.6053 254.554 47.156 254.554 47.94V52H252.958V44.286H254.554V45.406Z" fill="#A8A8B3" fill-opacity="0.8"/>
<path d="M265.076 44.16C265.673 44.16 266.201 44.2813 266.658 44.524C267.125 44.7573 267.489 45.0513 267.75 45.406V44.286H269.36V52.126C269.36 52.8353 269.211 53.4653 268.912 54.016C268.613 54.576 268.179 55.0146 267.61 55.332C267.05 55.6493 266.378 55.808 265.594 55.808C264.549 55.808 263.681 55.5606 262.99 55.066C262.299 54.5806 261.907 53.918 261.814 53.078H263.396C263.517 53.4793 263.774 53.8013 264.166 54.044C264.567 54.296 265.043 54.422 265.594 54.422C266.238 54.422 266.756 54.226 267.148 53.834C267.549 53.442 267.75 52.8727 267.75 52.126V50.838C267.479 51.202 267.111 51.51 266.644 51.762C266.187 52.0046 265.664 52.126 265.076 52.126C264.404 52.126 263.788 51.958 263.228 51.622C262.677 51.2766 262.239 50.8006 261.912 50.194C261.595 49.578 261.436 48.8826 261.436 48.108C261.436 47.3333 261.595 46.6473 261.912 46.05C262.239 45.4527 262.677 44.9906 263.228 44.664C263.788 44.328 264.404 44.16 265.076 44.16ZM267.75 48.136C267.75 47.604 267.638 47.142 267.414 46.75C267.199 46.358 266.915 46.0593 266.56 45.854C266.205 45.6486 265.823 45.546 265.412 45.546C265.001 45.546 264.619 45.6486 264.264 45.854C263.909 46.05 263.62 46.344 263.396 46.736C263.181 47.1186 263.074 47.576 263.074 48.108C263.074 48.64 263.181 49.1067 263.396 49.508C263.62 49.9093 263.909 50.2173 264.264 50.432C264.628 50.6373 265.011 50.74 265.412 50.74C265.823 50.74 266.205 50.6373 266.56 50.432C266.915 50.2267 267.199 49.928 267.414 49.536C267.638 49.1347 267.75 48.668 267.75 48.136Z" fill="#A8A8B3" fill-opacity="0.8"/>
<path d="M270.924 48.108C270.924 47.3333 271.083 46.6473 271.4 46.05C271.727 45.4527 272.166 44.9906 272.716 44.664C273.276 44.328 273.892 44.16 274.564 44.16C275.171 44.16 275.698 44.2813 276.146 44.524C276.604 44.7573 276.968 45.0513 277.238 45.406V44.286H278.848V52H277.238V50.852C276.968 51.216 276.599 51.5193 276.132 51.762C275.666 52.0046 275.134 52.126 274.536 52.126C273.874 52.126 273.267 51.958 272.716 51.622C272.166 51.2766 271.727 50.8006 271.4 50.194C271.083 49.578 270.924 48.8826 270.924 48.108ZM277.238 48.136C277.238 47.604 277.126 47.142 276.902 46.75C276.688 46.358 276.403 46.0593 276.048 45.854C275.694 45.6486 275.311 45.546 274.9 45.546C274.49 45.546 274.107 45.6486 273.752 45.854C273.398 46.05 273.108 46.344 272.884 46.736C272.67 47.1186 272.562 47.576 272.562 48.108C272.562 48.64 272.67 49.1067 272.884 49.508C273.108 49.9093 273.398 50.2173 273.752 50.432C274.116 50.6373 274.499 50.74 274.9 50.74C275.311 50.74 275.694 50.6373 276.048 50.432C276.403 50.2267 276.688 49.928 276.902 49.536C277.126 49.1347 277.238 48.668 277.238 48.136Z" fill="#A8A8B3" fill-opacity="0.8"/>
<path d="M290.283 44.16C290.889 44.16 291.431 44.286 291.907 44.538C292.392 44.79 292.77 45.1633 293.041 45.658C293.321 46.1526 293.461 46.75 293.461 47.45V52H291.879V47.688C291.879 46.9973 291.706 46.47 291.361 46.106C291.015 45.7327 290.544 45.546 289.947 45.546C289.349 45.546 288.873 45.7327 288.519 46.106C288.173 46.47 288.001 46.9973 288.001 47.688V52H286.419V47.688C286.419 46.9973 286.246 46.47 285.901 46.106C285.555 45.7327 285.084 45.546 284.487 45.546C283.889 45.546 283.413 45.7327 283.059 46.106C282.713 46.47 282.541 46.9973 282.541 47.688V52H280.945V44.286H282.541V45.168C282.802 44.8507 283.133 44.6033 283.535 44.426C283.936 44.2487 284.365 44.16 284.823 44.16C285.439 44.16 285.989 44.2906 286.475 44.552C286.96 44.8133 287.333 45.1913 287.595 45.686C287.828 45.2193 288.192 44.8506 288.687 44.58C289.181 44.3 289.713 44.16 290.283 44.16Z" fill="#A8A8B3" fill-opacity="0.8"/>
<path d="M302.561 47.954C302.561 48.2433 302.543 48.5047 302.505 48.738H296.611C296.658 49.354 296.887 49.8486 297.297 50.222C297.708 50.5953 298.212 50.782 298.809 50.782C299.668 50.782 300.275 50.4226 300.629 49.704H302.351C302.118 50.4133 301.693 50.9966 301.077 51.454C300.471 51.902 299.715 52.126 298.809 52.126C298.072 52.126 297.409 51.9626 296.821 51.636C296.243 51.3 295.785 50.8333 295.449 50.236C295.123 49.6293 294.959 48.9293 294.959 48.136C294.959 47.3426 295.118 46.6473 295.435 46.05C295.762 45.4433 296.215 44.9766 296.793 44.65C297.381 44.3233 298.053 44.16 298.809 44.16C299.537 44.16 300.186 44.3186 300.755 44.636C301.325 44.9533 301.768 45.4013 302.085 45.98C302.403 46.5493 302.561 47.2073 302.561 47.954ZM300.895 47.45C300.886 46.862 300.676 46.3907 300.265 46.036C299.855 45.6813 299.346 45.504 298.739 45.504C298.189 45.504 297.717 45.6813 297.325 46.036C296.933 46.3813 296.7 46.8526 296.625 47.45H300.895Z" fill="#A8A8B3" fill-opacity="0.8"/>
<path d="M306.932 52.126C306.325 52.126 305.779 52.0186 305.294 51.804C304.818 51.58 304.44 51.2813 304.16 50.908C303.88 50.5253 303.731 50.1007 303.712 49.634H305.364C305.392 49.9607 305.546 50.236 305.826 50.46C306.115 50.6747 306.475 50.782 306.904 50.782C307.352 50.782 307.697 50.698 307.94 50.53C308.192 50.3527 308.318 50.1286 308.318 49.858C308.318 49.5686 308.178 49.354 307.898 49.214C307.627 49.074 307.193 48.92 306.596 48.752C306.017 48.5933 305.546 48.4393 305.182 48.29C304.818 48.1406 304.501 47.912 304.23 47.604C303.969 47.296 303.838 46.89 303.838 46.386C303.838 45.9753 303.959 45.602 304.202 45.266C304.445 44.9207 304.79 44.65 305.238 44.454C305.695 44.258 306.218 44.16 306.806 44.16C307.683 44.16 308.388 44.384 308.92 44.832C309.461 45.2706 309.751 45.8726 309.788 46.638H308.192C308.164 46.2926 308.024 46.0173 307.772 45.812C307.52 45.6066 307.179 45.504 306.75 45.504C306.33 45.504 306.008 45.5833 305.784 45.742C305.56 45.9006 305.448 46.1106 305.448 46.372C305.448 46.5773 305.523 46.75 305.672 46.89C305.821 47.03 306.003 47.142 306.218 47.226C306.433 47.3006 306.75 47.3986 307.17 47.52C307.73 47.6693 308.187 47.8233 308.542 47.982C308.906 48.1313 309.219 48.3553 309.48 48.654C309.741 48.9527 309.877 49.3493 309.886 49.844C309.886 50.2826 309.765 50.6746 309.522 51.02C309.279 51.3653 308.934 51.636 308.486 51.832C308.047 52.028 307.529 52.126 306.932 52.126Z" fill="#A8A8B3" fill-opacity="0.8"/>
</svg>
